name Run_400 05_newCOP3_v24.mot
datacolumns 19
datarows 94
range 0.995833 1.092708
DataType=double
version=3
OpenSimVersion=4.3-2021-08-27-4bc7ad9
endheader
time	R_ground_force_vx	R_ground_force_vy	R_ground_force_vz	R_ground_force_px	R_ground_force_py	R_ground_force_pz	L_ground_force_vx	L_ground_force_vy	L_ground_force_vz	L_ground_force_px	L_ground_force_py	L_ground_force_pz	R_ground_torque_x	R_ground_torque_y	R_ground_torque_z	L_ground_torque_x	L_ground_torque_y	L_ground_torque_z
0.995833	154.646881	1592.187134	-0.892744	0.775412	0	-0.291417	0	0	0	0	0	0	-0	3.436615	-0	0	0	0
0.996875	160.169922	1578.623657	0.440735	0.771753	0	-0.291484	0	0	0	0	0	0	-0	3.226626	-0	0	0	0
0.9979170000000001	165.651871	1564.709106	1.786863	0.768087	0	-0.291562	0	0	0	0	0	0	-0	3.012664	-0	0	0	0
0.998958	171.080551	1550.438232	3.137906	0.764419	0	-0.291652	0	0	0	0	0	0	-0	2.795238	-0	0	0	0
1	176.443146	1535.805786	4.486904	0.760748	0	-0.291754	0	0	0	0	0	0	-0	2.574872	-0	0	0	0
1.001042	181.726242	1520.807251	5.82776	0.757078	0	-0.291868	0	0	0	0	0	0	-0	2.352096	-0	0	0	0
1.002083	186.915985	1505.438599	7.155299	0.7534110000000001	0	-0.291996	0	0	0	0	0	0	-0	2.127447	-0	0	0	0
1.003125	191.998199	1489.696777	8.465293000000001	0.7497470000000001	0	-0.292136	0	0	0	0	0	0	-0	1.901468	-0	0	0	0
1.004167	196.958588	1473.579956	9.754455	0.746089	0	-0.292288	0	0	0	0	0	0	-0	1.674703	-0	0	0	0
1.005208	201.78302	1457.087524	11.020404	0.742437	0	-0.292451	0	0	0	0	0	0	-0	1.447697	-0	0	0	0
1.00625	206.45787	1440.220459	12.261603	0.738792	0	-0.292625	0	0	0	0	0	0	-0	1.220995	-0	0	0	0
1.007292	210.970245	1422.981323	13.477278	0.735154	0	-0.29281	0	0	0	0	0	0	-0	0.995136	-0	0	0	0
1.008333	215.308411	1405.37439	14.667312	0.731525	0	-0.293003	0	0	0	0	0	0	-0	0.770659	-0	0	0	0
1.009375	219.462036	1387.406006	15.832129	0.727904	0	-0.293204	0	0	0	0	0	0	-0	0.5480930000000001	-0	0	0	0
1.010417	223.422485	1369.08374	16.972572	0.724292	0	-0.293412	0	0	0	0	0	0	-0	0.327961	-0	0	0	0
1.011458	227.182907	1350.417114	18.089771	0.720689	0	-0.293624	0	0	0	0	0	0	-0	0.110775	-0	0	0	0
1.0125	230.738434	1331.41687	19.185007	0.717093	0	-0.29384	0	0	0	0	0	0	0	-0.102962	0	0	0	0
1.013542	234.086105	1312.094849	20.259592	0.7135049999999999	0	-0.294059	0	0	0	0	0	0	0	-0.31276	0	0	0	0
1.014583	237.224792	1292.463745	21.314745	0.709925	0	-0.294278	0	0	0	0	0	0	0	-0.518142	0	0	0	0
1.015625	240.154938	1272.536865	22.351486	0.706351	0	-0.294496	0	0	0	0	0	0	0	-0.718646	0	0	0	0
1.016667	242.878265	1252.327637	23.370539	0.702783	0	-0.294713	0	0	0	0	0	0	0	-0.9138269999999999	0	0	0	0
1.017708	245.39743	1231.849854	24.372253	0.699222	0	-0.294926	0	0	0	0	0	0	0	-1.103254	0	0	0	0
1.01875	247.71553	1211.116699	25.356543	0.695666	0	-0.295134	0	0	0	0	0	0	0	-1.286518	0	0	0	0
1.019792	249.835739	1190.141479	26.322842	0.692115	0	-0.295337	0	0	0	0	0	0	0	-1.463225	0	0	0	0
1.020833	251.760757	1168.936768	27.270084	0.68857	0	-0.295534	0	0	0	0	0	0	0	-1.633005	0	0	0	0
1.021875	253.492493	1147.514893	28.196692	0.685032	0	-0.295723	0	0	0	0	0	0	0	-1.795508	0	0	0	0
1.022917	255.031647	1125.887817	29.100595	0.681501	0	-0.295904	0	0	0	0	0	0	0	-1.950404	0	0	0	0
1.023958	256.377594	1104.067017	29.979259	0.677979	0	-0.296076	0	0	0	0	0	0	0	-2.097388	0	0	0	0
1.025	257.528137	1082.063843	30.829725	0.674469	0	-0.29624	0	0	0	0	0	0	0	-2.236179	0	0	0	0
1.026042	258.479523	1059.889282	31.648672	0.670973	0	-0.296394	0	0	0	0	0	0	0	-2.36652	0	0	0	0
1.027083	259.226624	1037.554321	32.432484	0.667494	0	-0.29654	0	0	0	0	0	0	0	-2.488179	0	0	0	0
1.028125	259.763	1015.07019	33.177334	0.664034	0	-0.296677	0	0	0	0	0	0	0	-2.600952	0	0	0	0
1.029167	260.08136	992.447998	33.87925	0.660598	0	-0.296805	0	0	0	0	0	0	0	-2.704659	0	0	0	0
1.030208	260.173737	969.699402	34.534222	0.657189	0	-0.296925	0	0	0	0	0	0	0	-2.79915	0	0	0	0
1.03125	260.031982	946.836609	35.138275	0.653809	0	-0.297037	0	0	0	0	0	0	0	-2.884301	0	0	0	0
1.032292	259.648071	923.872375	35.687561	0.650463	0	-0.297142	0	0	0	0	0	0	0	-2.960016	0	0	0	0
1.033333	259.014496	900.820496	36.17844	0.647153	0	-0.29724	0	0	0	0	0	0	0	-3.02623	0	0	0	0
1.034375	258.124542	877.695557	36.607559	0.643881	0	-0.297332	0	0	0	0	0	0	0	-3.082904	0	0	0	0
1.035417	256.972626	854.513367	36.971905	0.640649	0	-0.297418	0	0	0	0	0	0	0	-3.13003	0	0	0	0
1.036458	255.554321	831.2907709999999	37.268887	0.637459	0	-0.297498	0	0	0	0	0	0	0	-3.167628	0	0	0	0
1.0375	253.866608	808.045959	37.496372	0.634311	0	-0.297574	0	0	0	0	0	0	0	-3.195745	0	0	0	0
1.038542	251.907898	784.798035	37.652725	0.631208	0	-0.297646	0	0	0	0	0	0	0	-3.214462	0	0	0	0
1.039583	249.677963	761.5673829999999	37.736847	0.628147	0	-0.297712	0	0	0	0	0	0	0	-3.223882	0	0	0	0
1.040625	247.178009	738.375183	37.748173	0.62513	0	-0.297774	0	0	0	0	0	0	0	-3.22414	0	0	0	0
1.041667	244.410507	715.243347	37.686691	0.622156	0	-0.297832	0	0	0	0	0	0	0	-3.215396	0	0	0	0
1.042708	241.379272	692.1944580000001	37.552937	0.619223	0	-0.297884	0	0	0	0	0	0	0	-3.197839	0	0	0	0
1.04375	238.089233	669.251343	37.347977	0.61633	0	-0.297931	0	0	0	0	0	0	0	-3.171681	0	0	0	0
1.044792	234.546555	646.437256	37.07338	0.613475	0	-0.297973	0	0	0	0	0	0	0	-3.137161	0	0	0	0
1.045833	230.758499	623.775269	36.731201	0.610656	0	-0.298008	0	0	0	0	0	0	0	-3.09454	0	0	0	0
1.046875	226.73349	601.288696	36.323929	0.607872	0	-0.298036	0	0	0	0	0	0	0	-3.044104	0	0	0	0
1.047917	222.481064	579.000549	35.85445	0.60512	0	-0.298057	0	0	0	0	0	0	0	-2.986156	0	0	0	0
1.048958	218.011978	556.933655	35.326004	0.602397	0	-0.29807	0	0	0	0	0	0	0	-2.921024	0	0	0	0
1.05	213.33812	535.110718	34.742134	0.599701	0	-0.298074	0	0	0	0	0	0	0	-2.849051	0	0	0	0
1.051042	208.472595	513.554382	34.106632	0.597029	0	-0.298069	0	0	0	0	0	0	0	-2.770598	0	0	0	0
1.052083	203.429611	492.286957	33.423492	0.594378	0	-0.298054	0	0	0	0	0	0	0	-2.686041	0	0	0	0
1.053125	198.224533	471.33078	32.696861	0.591747	0	-0.298029	0	0	0	0	0	0	0	-2.595772	0	0	0	0
1.054167	192.873703	450.707977	31.930979	0.589132	0	-0.297992	0	0	0	0	0	0	0	-2.50019	0	0	0	0
1.055208	187.394333	430.440521	31.130156	0.586529	0	-0.297944	0	0	0	0	0	0	0	-2.39971	0	0	0	0
1.05625	181.804291	410.550262	30.298704	0.583937	0	-0.297882	0	0	0	0	0	0	0	-2.294751	0	0	0	0
1.057292	176.121964	391.058594	29.440914	0.581352	0	-0.297807	0	0	0	0	0	0	0	-2.185741	0	0	0	0
1.058333	170.365891	371.986572	28.561016	0.578772	0	-0.297717	0	0	0	0	0	0	0	-2.073111	0	0	0	0
1.059375	164.554565	353.354492	27.663141	0.576194	0	-0.297611	0	0	0	0	0	0	0	-1.957298	0	0	0	0
1.060417	158.706161	335.181915	26.751307	0.573615	0	-0.297488	0	0	0	0	0	0	0	-1.838738	0	0	0	0
1.061458	152.83815	317.487244	25.829382	0.571034	0	-0.297346	0	0	0	0	0	0	0	-1.717866	0	0	0	0
1.0625	146.967163	300.287567	24.901073	0.568449	0	-0.297183	0	0	0	0	0	0	0	-1.595117	0	0	0	0
1.063542	141.108658	283.59848	23.969915	0.56586	0	-0.296997	0	0	0	0	0	0	0	-1.470922	0	0	0	0
1.064583	135.276794	267.433838	23.039249	0.563265	0	-0.296786	0	0	0	0	0	0	0	-1.345704	0	0	0	0
1.065625	129.484329	251.805527	22.112223	0.560667	0	-0.296548	0	0	0	0	0	0	0	-1.219881	0	0	0	0
1.066667	123.742485	236.72345	21.191782	0.558068	0	-0.296279	0	0	0	0	0	0	0	-1.093864	0	0	0	0
1.067708	118.061058	222.195374	20.28067	0.55547	0	-0.295978	0	0	0	0	0	0	0	-0.968052	0	0	0	0
1.06875	112.448502	208.226929	19.381432	0.552878	0	-0.29564	0	0	0	0	0	0	0	-0.8428330000000001	0	0	0	0
1.069792	106.912071	194.821564	18.496403	0.550301	0	-0.295262	0	0	0	0	0	0	0	-0.718584	0	0	0	0
1.070833	101.458054	181.980713	17.627731	0.547746	0	-0.294841	0	0	0	0	0	0	0	-0.5956669999999999	0	0	0	0
1.071875	96.09204099999999	169.703781	16.777363	0.545225	0	-0.294372	0	0	0	0	0	0	0	-0.47443	0	0	0	0
1.072917	90.819214	157.988297	15.947064	0.542751	0	-0.293851	0	0	0	0	0	0	0	-0.355207	0	0	0	0
1.073958	85.644577	146.830078	15.138416	0.540343	0	-0.293272	0	0	0	0	0	0	0	-0.238313	0	0	0	0
1.075	80.573204	136.223343	14.352826	0.5380200000000001	0	-0.29263	0	0	0	0	0	0	0	-0.124047	0	0	0	0
1.076042	75.610466	126.160896	13.591532	0.535808	0	-0.291917	0	0	0	0	0	0	0	-0.012692	0	0	0	0
1.077083	70.762123	116.634224	12.855608	0.533734	0	-0.291128	0	0	0	0	0	0	-0	0.095489	-0	0	0	0
1.078125	66.034409	107.633675	12.145974	0.531833	0	-0.290253	0	0	0	0	0	0	-0	0.200253	-0	0	0	0
1.079167	61.434021	99.148521	11.463398	0.530142	0	-0.289283	0	0	0	0	0	0	-0	0.301373	-0	0	0	0
1.080208	56.968048	91.167114	10.808503	0.528705	0	-0.288206	0	0	0	0	0	0	-0	0.398643	-0	0	0	0
1.08125	52.643856	83.676941	10.181771	0.52757	0	-0.287011	0	0	0	0	0	0	-0	0.491877	-0	0	0	0
1.082292	48.468903	76.66467299999999	9.583550000000001	0.52679	0	-0.285683	0	0	0	0	0	0	-0	0.580908	-0	0	0	0
1.083333	44.450558	70.116272	9.014059	0.526424	0	-0.284206	0	0	0	0	0	0	-0	0.665588	-0	0	0	0
1.084375	40.595875	64.017014	8.473388999999999	0.5265339999999999	0	-0.282562	0	0	0	0	0	0	-0	0.74579	-0	0	0	0
1.085417	36.911396	58.351555	7.961512	0.527191	0	-0.280732	0	0	0	0	0	0	-0	0.8214050000000001	-0	0	0	0
1.086458	33.402943	53.103977	7.478282	0.528466	0	-0.278692	0	0	0	0	0	0	-0	0.892343	-0	0	0	0
1.0875	30.075459	48.257858	7.023445	0.530437	0	-0.27642	0	0	0	0	0	0	-0	0.958533	-0	0	0	0
1.088542	26.932837	43.796341	6.596638	0.533184	0	-0.273887	0	0	0	0	0	0	-0	1.019924	-0	0	0	0
1.089583	23.977833	39.702206	6.197397	0.536792	0	-0.271065	0	0	0	0	0	0	-0	1.07648	-0	0	0	0
1.090625	21.211987	35.957966	5.825163	0.541345	0	-0.267924	0	0	0	0	0	0	-0	1.128184	-0	0	0	0
1.091667	18.635574	32.545948	5.479287	0.546924	0	-0.264431	0	0	0	0	0	0	-0	1.175037	-0	0	0	0
1.092708	16.247622	29.448385	5.159034	0.553609	0	-0.260555	0	0	0	0	0	0	-0	1.217053	-0	0	0	0
